<svg xmlns="http://www.w3.org/2000/svg" xmlns:xlink="http://www.w3.org/1999/xlink" width="1366" zoomAndPan="magnify" viewBox="0 0 1024.5 576" height="768" preserveAspectRatio="xMidYMid meet" version="1.0"><defs><clipPath id="08200b268f"><path d="M 313 172.539062 L 711.207031 172.539062 L 711.207031 273.789062 L 313 273.789062 Z M 313 172.539062 " clip-rule="nonzero"/></clipPath></defs><g clip-path="url(#08200b268f)"><path fill="#000000" d="M 531.746094 254.820312 C 531.71875 255.019531 531.6875 255.234375 531.65625 255.464844 C 531.167969 255.550781 530.695312 255.632812 530.042969 255.746094 C 530.425781 255.207031 530.671875 254.859375 530.949219 254.46875 C 530.929688 254.4375 530.835938 254.3125 530.695312 254.125 C 531.71875 254.023438 532.359375 253.597656 532.367188 252.519531 C 532.175781 252.472656 531.976562 252.421875 531.875 252.398438 C 531.636719 252.082031 532.476562 251.75 531.71875 251.554688 C 531.714844 251.621094 531.726562 251.734375 531.703125 251.746094 C 531.140625 251.941406 531.257812 252.335938 531.480469 252.820312 C 531.199219 252.820312 530.855469 252.890625 530.8125 252.808594 C 530.503906 252.183594 530.230469 252.515625 529.886719 252.925781 C 529.886719 252.660156 529.828125 252.453125 529.898438 252.386719 C 530.230469 252.074219 530.621094 251.820312 530.945312 251.503906 C 531.085938 251.367188 531.195312 251.109375 531.179688 250.921875 C 531.140625 250.550781 531.320312 250.5625 531.570312 250.605469 C 531.625 250.308594 531.683594 250.011719 531.753906 249.65625 C 531.4375 249.761719 531.273438 249.820312 531.210938 249.84375 C 531.296875 249.195312 531.382812 248.566406 531.472656 247.894531 C 531.148438 247.964844 530.984375 248.023438 530.820312 248.027344 C 529.804688 248.050781 528.8125 247.933594 527.78125 248.207031 C 526.359375 248.582031 524.875 248.707031 523.40625 248.886719 C 519.199219 249.394531 514.996094 249.578125 510.847656 248.421875 C 508.703125 247.824219 506.824219 246.800781 505.375 245.070312 C 503.390625 242.699219 502.097656 239.945312 501.015625 237.089844 C 500.289062 235.171875 499.703125 233.195312 498.96875 231.277344 C 498.691406 230.546875 498.847656 230.101562 499.40625 229.644531 C 500.03125 229.132812 500.636719 228.59375 501.210938 228.03125 C 506.441406 222.890625 511.058594 217.226562 515.390625 211.324219 C 516.746094 209.476562 518.007812 207.546875 519.210938 205.59375 C 520.785156 203.039062 522.429688 200.503906 523.164062 197.488281 C 523.019531 197.449219 522.863281 197.40625 522.863281 197.40625 C 522.746094 196.976562 522.722656 196.617188 522.542969 196.363281 C 522.464844 196.25 522.082031 196.34375 521.835938 196.34375 C 521.792969 196.417969 521.753906 196.492188 521.710938 196.566406 C 520.738281 195.675781 519.796875 194.742188 518.777344 193.902344 C 518.320312 193.527344 517.710938 193.328125 517.308594 193.121094 C 517.046875 193.46875 516.898438 193.742188 516.671875 193.917969 C 516.617188 193.960938 516.332031 193.644531 516.121094 193.574219 C 515.800781 193.46875 515.367188 193.273438 515.140625 193.398438 C 514.726562 193.625 514.554688 193.519531 514.316406 193.210938 C 514.234375 193.101562 513.921875 193.003906 513.890625 193.042969 C 513.625 193.375 513.398438 193.738281 513.199219 194.039062 C 512.945312 194.234375 512.605469 194.367188 512.523438 194.59375 C 512.398438 194.9375 512.457031 195.34375 512.4375 195.757812 C 511.8125 195.644531 511.949219 196.351562 511.699219 196.746094 C 509.804688 199.675781 508.015625 202.679688 505.945312 205.480469 C 503.605469 208.644531 501 211.613281 498.53125 214.683594 C 498.191406 215.105469 497.972656 215.621094 497.6875 216.085938 C 497.628906 216.1875 497.539062 216.273438 497.445312 216.339844 C 497.128906 216.558594 496.761719 216.714844 496.488281 216.976562 C 495.921875 217.527344 495.402344 218.128906 494.742188 218.839844 C 494.882812 218.269531 494.988281 217.894531 495.0625 217.515625 C 495.332031 216.167969 495.394531 214.789062 495.691406 213.4375 C 496.152344 211.339844 496.464844 209.214844 496.855469 207.105469 C 497.6875 202.601562 498.566406 198.105469 499.347656 193.59375 C 499.570312 192.304688 499.574219 190.964844 499.558594 189.648438 C 499.546875 188.636719 498.816406 188.152344 497.820312 188.300781 C 497.546875 188.34375 497.257812 188.308594 496.898438 188.308594 C 496.882812 188.34375 496.800781 188.523438 496.6875 188.78125 C 496.4375 188.097656 496.4375 188.105469 495.808594 188.148438 C 495.613281 188.160156 495.410156 188.121094 495.210938 188.09375 C 494.386719 187.96875 493.609375 187.660156 492.714844 187.910156 C 491.949219 188.121094 491.109375 188.050781 490.304688 188.121094 C 489.773438 188.167969 489.246094 188.242188 488.632812 188.316406 C 488.894531 188.691406 489.101562 188.988281 489.210938 189.140625 C 488.960938 190.03125 488.703125 190.789062 488.539062 191.566406 C 488.328125 192.578125 488.214844 193.609375 488.019531 194.628906 C 487.675781 196.449219 487.289062 198.265625 486.941406 200.089844 C 486.566406 202.085938 486.214844 204.085938 485.867188 206.089844 C 485.839844 206.253906 485.941406 206.445312 485.957031 206.496094 C 485.796875 206.855469 485.617188 207.117188 485.566406 207.40625 C 485.175781 209.539062 484.789062 211.671875 484.449219 213.8125 C 483.96875 216.8125 483.515625 219.820312 483.078125 222.828125 C 482.621094 225.945312 482.105469 229.054688 481.789062 232.1875 C 481.375 236.277344 481.089844 240.382812 480.828125 244.488281 C 480.527344 249.203125 480.625 253.921875 481.210938 258.621094 C 481.574219 261.539062 482.335938 264.324219 483.785156 266.90625 C 484.097656 267.46875 484.457031 267.550781 484.988281 267.328125 C 485.953125 266.925781 486.925781 266.535156 487.890625 266.128906 C 488.171875 266.007812 488.4375 265.703125 488.699219 265.710938 C 489.6875 265.746094 490.4375 265.164062 491.277344 264.832031 C 491.605469 264.703125 491.890625 264.472656 492.203125 264.28125 C 492.128906 264.074219 492.042969 263.835938 491.898438 263.429688 C 492.375 263.734375 492.671875 264.089844 492.953125 264.078125 C 493.875 264.039062 494.09375 263.644531 493.832031 262.753906 C 493.75 262.472656 493.710938 262.175781 493.59375 261.914062 C 492.609375 259.625 492.109375 257.222656 492.007812 254.75 C 491.902344 252.042969 491.882812 249.335938 491.832031 246.628906 C 491.816406 245.902344 491.828125 245.171875 491.828125 244.441406 C 491.886719 244.4375 491.945312 244.433594 492.007812 244.433594 C 492.171875 244.773438 492.339844 245.109375 492.507812 245.449219 C 493.929688 248.367188 495.644531 251.085938 497.886719 253.453125 C 501.089844 256.828125 505.101562 258.675781 509.59375 259.59375 C 511.707031 260.023438 513.828125 260.289062 516 260.195312 C 518.421875 260.09375 520.851562 260.128906 523.273438 260.035156 C 524.15625 260.003906 525.035156 259.785156 525.914062 259.636719 C 527.308594 259.398438 528.703125 259.167969 530.085938 258.894531 C 530.601562 258.792969 531.085938 258.503906 531.601562 258.421875 C 532.601562 258.261719 532.996094 257.480469 532.417969 256.691406 C 532.578125 256.40625 532.738281 256.117188 532.925781 255.789062 C 533 255.910156 533.066406 256.015625 533.238281 256.285156 C 533.277344 255.765625 533.304688 255.429688 533.332031 255.09375 C 533.164062 255.167969 532.996094 255.246094 532.785156 255.339844 C 532.667969 254.789062 532.324219 254.601562 531.746094 254.820312 Z M 490.136719 189.714844 C 489.609375 189.21875 489.609375 189.21875 490.136719 188.652344 C 490.136719 189.019531 490.136719 189.296875 490.136719 189.714844 Z M 527.199219 257.636719 C 527.089844 257.625 526.960938 257.761719 526.761719 257.871094 C 526.851562 257.246094 527.339844 256.882812 527.886719 256.960938 C 527.941406 257.753906 527.941406 257.746094 527.199219 257.636719 Z M 530.753906 249.878906 C 530.695312 250.339844 530.648438 250.710938 530.582031 251.242188 C 530.441406 251.140625 530.316406 251.046875 530.183594 250.964844 C 530.066406 250.890625 529.9375 250.835938 529.800781 250.765625 C 530.105469 250.484375 530.375 250.230469 530.753906 249.878906 Z M 676.222656 182.515625 C 674.953125 182.03125 673.789062 181.183594 672.316406 181.414062 C 672.21875 181.429688 672.09375 181.289062 671.980469 181.21875 C 671.644531 181.019531 671.300781 180.828125 670.96875 180.613281 C 670.535156 180.328125 670.28125 180.492188 670.082031 180.917969 C 669.714844 181.707031 669.28125 182.46875 668.957031 183.277344 C 668.398438 184.664062 667.886719 186.074219 667.390625 187.484375 C 665.78125 192.0625 664.042969 196.601562 662.621094 201.234375 C 660.761719 207.304688 659.121094 213.441406 657.445312 219.566406 C 656.023438 224.777344 655.039062 230.109375 653.167969 235.195312 C 652.679688 236.523438 652.101562 237.820312 651.570312 239.128906 C 651.496094 239.121094 651.421875 239.113281 651.347656 239.101562 C 651.171875 238.640625 650.945312 238.191406 650.820312 237.71875 C 650.140625 235.050781 649.636719 232.339844 649.617188 229.585938 C 649.59375 225.582031 649.613281 221.570312 649.808594 217.570312 C 649.964844 214.402344 650.332031 211.234375 650.753906 208.085938 C 651.21875 204.589844 651.824219 201.113281 652.421875 197.636719 C 652.953125 194.5625 653.535156 191.496094 654.148438 188.4375 C 654.332031 187.515625 654.015625 186.816406 653.460938 186.160156 C 653.355469 186.035156 653.175781 185.921875 653.015625 185.898438 C 652.488281 185.824219 651.933594 185.359375 651.417969 185.96875 C 651.363281 186.03125 651.164062 185.976562 651.035156 185.980469 C 650.785156 185.992188 650.527344 185.96875 650.289062 186.027344 C 650.101562 186.074219 649.941406 186.222656 649.703125 186.363281 C 649.640625 186.015625 649.597656 185.777344 649.554688 185.542969 C 649.023438 185.664062 648.496094 185.785156 647.902344 185.921875 C 648 185.597656 648.058594 185.410156 648.101562 185.273438 C 647.28125 185.273438 646.53125 185.273438 645.789062 185.273438 C 645.863281 185.320312 645.949219 185.375 646.035156 185.425781 C 646.023438 185.507812 646.007812 185.589844 645.996094 185.667969 C 645.625 185.601562 645.234375 185.589844 644.898438 185.449219 C 644.503906 185.285156 644.226562 185.398438 644.042969 185.695312 C 643.789062 186.117188 643.535156 186.558594 643.40625 187.027344 C 642.933594 188.746094 642.554688 190.484375 642.601562 192.285156 C 642.605469 192.382812 642.558594 192.492188 642.507812 192.582031 C 642.386719 192.804688 642.175781 193.007812 642.128906 193.246094 C 641.609375 195.824219 641.109375 198.410156 640.628906 200.996094 C 640.59375 201.191406 640.757812 201.421875 640.796875 201.535156 C 640.652344 201.800781 640.460938 202.035156 640.382812 202.304688 C 640.226562 202.84375 640.34375 203.398438 640.222656 203.980469 C 639.796875 206.011719 639.550781 208.085938 639.324219 210.152344 C 639.066406 212.480469 638.847656 214.8125 638.722656 217.152344 C 638.554688 220.230469 638.476562 223.316406 638.398438 226.398438 C 638.371094 227.425781 638.433594 228.457031 638.492188 229.484375 C 638.546875 230.511719 638.695312 231.535156 638.722656 232.5625 C 638.746094 233.539062 639.046875 234.460938 639.113281 235.4375 C 639.304688 238.222656 640.109375 240.886719 641.140625 243.46875 C 642.386719 246.597656 644.183594 249.351562 647.097656 251.195312 C 648.289062 251.949219 649.605469 252.40625 651.082031 252.371094 C 651.804688 252.351562 652.492188 252.398438 653.1875 252.128906 C 653.714844 251.921875 654.292969 251.863281 654.835938 251.6875 C 655.15625 251.585938 655.472656 251.417969 655.75 251.222656 C 656.160156 250.9375 656.550781 250.613281 656.917969 250.273438 C 657.523438 249.714844 658.140625 249.160156 658.683594 248.542969 C 659.214844 247.9375 659.667969 247.257812 660.242188 246.492188 C 660.320312 246.941406 660.355469 247.265625 660.429688 247.582031 C 660.753906 248.925781 661.050781 250.28125 661.441406 251.609375 C 661.570312 252.050781 661.910156 252.449219 662.214844 252.8125 C 662.425781 253.0625 662.804688 253.171875 663.007812 253.425781 C 663.402344 253.90625 663.707031 253.964844 664.230469 253.578125 C 664.535156 253.355469 664.839844 253.117188 665.175781 252.953125 C 666.417969 252.355469 667.667969 251.769531 668.925781 251.210938 C 669.652344 250.886719 670.398438 250.605469 671.15625 250.351562 C 671.699219 250.171875 672.40625 250.21875 672.257812 249.320312 C 672.25 249.269531 672.347656 249.214844 672.359375 249.152344 C 672.40625 248.933594 672.523438 248.683594 672.460938 248.492188 C 672.15625 247.585938 671.601562 246.71875 671.5 245.796875 C 671.257812 243.578125 670.972656 241.320312 671.148438 239.113281 C 671.53125 234.253906 672.050781 229.394531 672.757812 224.574219 C 673.691406 218.222656 674.820312 211.898438 675.9375 205.578125 C 676.566406 202.011719 677.300781 198.460938 678.078125 194.921875 C 678.46875 193.144531 679.121094 191.421875 679.539062 189.644531 C 679.972656 187.789062 680.644531 185.953125 680.261719 184.089844 C 678.90625 183.558594 677.566406 183.03125 676.222656 182.515625 Z M 642.472656 233.171875 C 642.367188 233.199219 642.179688 232.890625 642.03125 232.734375 C 642.085938 232.683594 642.140625 232.632812 642.191406 232.582031 C 642.453125 232.582031 642.71875 232.582031 642.980469 232.582031 C 643.015625 232.632812 643.050781 232.683594 643.089844 232.734375 C 642.886719 232.890625 642.699219 233.113281 642.472656 233.171875 Z M 394.515625 195.839844 C 394.179688 196.085938 393.867188 196.316406 393.546875 196.546875 C 392.996094 195.671875 392.375 195.582031 391.476562 196.125 C 391.140625 196.324219 390.71875 196.386719 390.386719 196.496094 C 390.328125 196.222656 390.292969 195.910156 390.253906 195.910156 C 389.414062 195.910156 388.824219 194.917969 387.824219 195.375 C 387.226562 195.652344 386.496094 195.636719 385.828125 195.75 C 385.625 195.570312 385.25 195.449219 385.203125 195.527344 C 384.945312 195.953125 384.660156 196.410156 384.578125 196.890625 C 384.347656 198.210938 384.207031 199.546875 384.035156 200.878906 C 383.402344 205.714844 382.75 210.550781 382.148438 215.390625 C 381.789062 218.253906 381.5 221.128906 381.199219 224 C 381.164062 224.335938 381.09375 224.554688 380.726562 224.601562 C 378.382812 224.921875 376.039062 225.246094 373.691406 225.5625 C 373.550781 225.582031 373.402344 225.539062 373.226562 225.523438 C 373.238281 225.230469 373.238281 224.984375 373.261719 224.742188 C 373.648438 220.707031 373.964844 216.664062 374.449219 212.640625 C 374.980469 208.265625 375.753906 203.917969 376.25 199.539062 C 376.425781 197.960938 377.359375 196.304688 376.078125 194.695312 C 375.644531 194.152344 374.972656 193.867188 374.367188 194.300781 C 374.050781 194.171875 373.742188 194.125 373.542969 193.953125 C 372.863281 193.375 371.984375 193.605469 371.230469 193.34375 C 371.175781 193.324219 370.988281 193.550781 370.933594 193.691406 C 370.773438 194.117188 370.585938 194.488281 369.828125 194.53125 C 370.132812 194.148438 370.332031 193.898438 370.53125 193.648438 C 370.507812 193.59375 370.484375 193.539062 370.460938 193.484375 C 370.242188 193.585938 369.976562 193.640625 369.8125 193.796875 C 369.636719 193.964844 369.554688 194.234375 369.375 194.5625 C 369.320312 194.203125 369.28125 193.96875 369.242188 193.734375 C 368.761719 193.78125 368.296875 193.871094 367.832031 193.863281 C 366.585938 193.84375 365.902344 194.414062 365.738281 195.667969 C 365.648438 196.386719 365.613281 197.117188 365.496094 197.828125 C 365.347656 198.726562 365.101562 199.605469 364.964844 200.5 C 364.667969 202.460938 364.414062 204.425781 364.140625 206.390625 C 363.757812 209.160156 363.316406 211.921875 363.011719 214.699219 C 362.65625 217.988281 362.378906 221.292969 362.144531 224.59375 C 361.847656 228.816406 361.578125 233.042969 361.390625 237.273438 C 361.191406 241.746094 361.117188 246.222656 360.949219 250.695312 C 360.746094 256.0625 360.710938 261.425781 360.996094 266.789062 C 361.113281 268.984375 361.46875 271.148438 362.304688 273.210938 C 362.507812 273.714844 362.839844 273.835938 363.304688 273.730469 C 364.652344 273.429688 365.996094 273.121094 367.339844 272.804688 C 368.136719 272.617188 368.9375 272.433594 369.722656 272.195312 C 370.03125 272.101562 370.292969 271.867188 370.613281 271.675781 C 371.414062 272.152344 372.082031 271.542969 372.773438 271.253906 C 372.714844 270.996094 372.640625 270.773438 372.628906 270.550781 C 372.605469 270.136719 372.667969 269.714844 372.613281 269.308594 C 372.390625 267.601562 372.003906 265.902344 371.925781 264.191406 C 371.804688 261.488281 371.832031 258.773438 371.886719 256.066406 C 371.992188 251.1875 372.160156 246.3125 372.316406 241.433594 C 372.367188 239.851562 372.472656 238.269531 372.558594 236.589844 C 373.542969 236.589844 374.457031 236.589844 375.367188 236.589844 C 375.367188 236.558594 375.367188 236.527344 375.363281 236.492188 C 375.257812 236.445312 375.152344 236.398438 375.046875 236.351562 C 376.585938 236.476562 378.070312 236.421875 379.535156 235.652344 C 379.523438 235.632812 379.597656 235.761719 379.671875 235.894531 C 379.8125 235.742188 379.921875 235.617188 380.039062 235.496094 C 380.09375 235.515625 380.148438 235.539062 380.203125 235.558594 C 380.183594 235.90625 380.136719 236.25 380.152344 236.59375 C 380.160156 236.777344 380.222656 237.03125 380.355469 237.121094 C 380.726562 237.378906 380.757812 237.757812 380.402344 238.027344 C 380.230469 238.15625 380.011719 238.355469 380 238.535156 C 379.867188 240.320312 379.761719 242.105469 379.6875 243.894531 C 379.679688 244.117188 379.894531 244.347656 380.011719 244.59375 C 379.261719 245.933594 379.457031 247.480469 379.4375 248.964844 C 379.421875 250.476562 378.828125 252.007812 379.511719 253.539062 C 380.503906 253.464844 381.558594 254.25 382.496094 253.191406 C 382.617188 253.457031 382.6875 253.621094 382.792969 253.851562 C 382.980469 253.34375 383.210938 253.097656 383.726562 253.261719 C 384.039062 253.363281 384.394531 253.347656 384.890625 253.398438 C 384.714844 253.636719 384.542969 253.886719 384.355469 254.128906 C 384.191406 254.335938 384.015625 254.535156 383.84375 254.738281 C 383.847656 254.738281 383.847656 254.738281 383.847656 254.738281 C 383.851562 254.746094 383.855469 254.753906 383.859375 254.761719 C 384.046875 254.785156 384.234375 254.808594 384.484375 254.835938 C 384.515625 255.09375 384.542969 255.363281 384.574219 255.636719 C 384.492188 255.667969 384.414062 255.703125 384.335938 255.734375 C 384.175781 255.410156 384.015625 255.085938 383.859375 254.761719 C 383.847656 254.757812 383.839844 254.757812 383.828125 254.757812 C 383.832031 254.75 383.839844 254.746094 383.84375 254.738281 C 383.648438 254.625 383.4375 254.527344 383.261719 254.390625 C 382.785156 254.015625 382.292969 254.023438 382.011719 254.515625 C 381.703125 255.046875 381.363281 254.734375 381.027344 254.644531 C 380.921875 254.617188 380.828125 254.523438 380.671875 254.421875 C 380.636719 254.8125 380.605469 255.121094 380.578125 255.433594 C 380.519531 255.460938 380.460938 255.488281 380.402344 255.519531 C 380.359375 255.375 380.316406 255.230469 380.277344 255.089844 C 380.109375 255.371094 380.027344 255.539062 379.921875 255.683594 C 379.730469 255.945312 379.433594 256.160156 379.339844 256.449219 C 379.210938 256.851562 379.179688 257.300781 379.183594 257.730469 C 379.195312 259.167969 379.226562 260.605469 379.285156 262.042969 C 379.296875 262.308594 379.472656 262.570312 379.585938 262.867188 C 379.53125 262.964844 379.335938 263.152344 379.347656 263.324219 C 379.410156 264.265625 379.523438 265.203125 379.613281 266.140625 C 379.65625 266.613281 379.851562 266.855469 380.351562 266.65625 C 380.503906 265.828125 381.421875 265.261719 382.59375 265.308594 C 382.445312 265.433594 382.328125 265.53125 382.253906 265.59375 C 382.382812 265.808594 382.605469 266.03125 382.5625 266.121094 C 382.316406 266.609375 382.003906 267.066406 381.714844 267.527344 C 381.855469 267.679688 381.992188 267.828125 382.109375 267.957031 C 382.253906 267.851562 382.386719 267.757812 382.570312 267.621094 C 382.640625 268.6875 383.191406 269.097656 383.992188 268.828125 C 384.425781 268.683594 384.875 268.585938 385.328125 268.519531 C 385.652344 268.46875 386.015625 268.589844 386.316406 268.496094 C 387.414062 268.140625 388.488281 267.726562 389.644531 267.308594 C 389.34375 267.042969 389.164062 266.886719 388.984375 266.726562 C 389.195312 266.59375 389.40625 266.464844 389.613281 266.332031 C 389.648438 266.03125 389.71875 265.625 389.914062 265.550781 C 390.636719 265.273438 390.648438 264.753906 390.574219 264.132812 C 390.367188 262.410156 390.160156 260.695312 390.160156 258.949219 C 390.164062 253.878906 390.398438 248.816406 390.683594 243.753906 C 390.777344 242.109375 391.476562 240.414062 390.542969 238.734375 C 390.128906 239.039062 389.746094 239.316406 389.242188 239.683594 C 389.457031 239.261719 389.546875 239.046875 389.671875 238.847656 C 389.78125 238.671875 389.90625 238.390625 390.058594 238.367188 C 390.941406 238.238281 391.25 237.726562 391.214844 236.886719 C 391.195312 236.507812 391.246094 236.128906 391.28125 235.75 C 391.675781 231.40625 392.019531 227.054688 392.488281 222.714844 C 393.089844 217.152344 393.824219 211.601562 394.4375 206.039062 C 394.777344 202.992188 394.996094 199.933594 395.269531 196.882812 C 395.324219 196.292969 395.070312 195.945312 394.515625 195.839844 Z M 380.507812 257.472656 C 380.8125 256.457031 381.300781 257.59375 381.6875 257.289062 C 381.582031 257.917969 381.582031 257.917969 380.507812 257.472656 Z M 389.894531 247.089844 C 390.097656 247.550781 389.660156 247.460938 389.355469 247.453125 C 389.105469 247.445312 388.628906 247.734375 388.726562 247.195312 C 389.171875 247.15625 389.507812 247.125 389.894531 247.089844 Z M 626.308594 193.78125 C 628.390625 192.84375 630.46875 191.890625 632.53125 190.910156 C 634.550781 189.949219 636.558594 188.953125 638.558594 187.941406 C 638.78125 187.828125 638.949219 187.53125 639.050781 187.285156 C 639.195312 186.933594 639.273438 186.550781 639.339844 186.175781 C 639.378906 185.9375 639.394531 185.667969 639.328125 185.441406 C 639.230469 185.097656 639.054688 184.777344 638.902344 184.457031 C 638.835938 184.320312 638.730469 184.203125 638.667969 184.066406 C 638.5625 183.832031 638.445312 183.597656 638.394531 183.351562 C 638.316406 183 638.394531 182.585938 638.234375 182.289062 C 637.453125 180.84375 636.585938 179.445312 635.808594 177.996094 C 635.523438 177.464844 635.214844 177.351562 634.703125 177.601562 C 634.441406 177.726562 634.164062 177.820312 633.898438 177.949219 C 631.917969 178.894531 629.941406 179.851562 627.960938 180.792969 C 624.949219 182.226562 621.96875 183.746094 618.75 184.679688 C 618.070312 184.878906 617.332031 185.101562 616.652344 185.027344 C 615.527344 184.902344 614.429688 184.535156 613.320312 184.292969 C 613.125 184.25 612.902344 184.28125 612.703125 184.320312 C 612.429688 184.378906 612.164062 184.496094 611.890625 184.546875 C 611.261719 184.664062 610.628906 184.816406 609.996094 184.851562 C 609.265625 184.894531 609.355469 185.378906 609.347656 185.839844 C 609.332031 186.703125 609.324219 187.566406 609.3125 188.429688 C 609.242188 188.433594 609.167969 188.4375 609.09375 188.441406 C 609.050781 188.300781 609.039062 188.148438 608.960938 188.03125 C 608.855469 187.867188 608.707031 187.734375 608.574219 187.585938 C 608.457031 187.773438 608.265625 187.949219 608.242188 188.148438 C 608.199219 188.492188 608.261719 188.847656 608.28125 189.21875 C 608.128906 189.253906 607.988281 189.289062 607.820312 189.328125 C 608.117188 190.582031 607.554688 191.480469 606.824219 192.429688 C 604.316406 195.679688 602.488281 199.324219 600.980469 203.125 C 599.410156 207.09375 598.367188 211.210938 597.578125 215.40625 C 596.691406 220.136719 596.238281 224.894531 596.332031 229.707031 C 596.414062 233.761719 596.945312 237.742188 598.492188 241.535156 C 599.660156 244.386719 601.382812 246.828125 603.898438 248.632812 C 606.011719 250.148438 608.40625 250.664062 610.972656 250.1875 C 612.527344 249.898438 613.910156 249.167969 615.128906 248.183594 C 616.765625 246.855469 618.003906 245.171875 619.082031 243.375 C 622.710938 237.320312 624.789062 230.707031 626.09375 223.824219 C 626.90625 219.550781 627.410156 215.242188 627.632812 210.898438 C 627.816406 207.316406 627.859375 203.726562 627.34375 200.167969 C 627.066406 198.25 626.519531 196.371094 626.082031 194.476562 C 626.011719 194.183594 625.910156 193.960938 626.308594 193.78125 Z M 609.167969 237.910156 C 608.265625 236.214844 607.886719 234.421875 607.667969 232.597656 C 607.164062 228.390625 607.324219 224.183594 608.03125 220.019531 C 608.585938 216.769531 609.207031 213.511719 610.097656 210.339844 C 611.207031 206.386719 612.917969 202.660156 615.261719 199.253906 C 615.351562 199.125 615.441406 199 615.539062 198.875 C 615.5625 198.84375 615.609375 198.828125 615.648438 198.804688 C 618.917969 205.089844 614.503906 231.902344 609.167969 237.910156 Z M 416.046875 197.058594 L 416.054688 197.039062 C 416.054688 197.046875 416.050781 197.050781 416.050781 197.058594 C 416.050781 197.058594 416.050781 197.058594 416.046875 197.058594 Z M 429.738281 262.808594 C 430.839844 261.960938 430.914062 261.671875 430.847656 261.113281 C 430.761719 260.367188 430.515625 259.800781 429.847656 259.4375 C 429.75 259.382812 429.679688 259.28125 429.578125 259.234375 C 429.152344 259.042969 429.003906 258.730469 429.050781 258.261719 C 429.066406 258.089844 428.917969 257.875 428.800781 257.714844 C 428.609375 257.449219 428.265625 257.242188 428.183594 256.953125 C 427.660156 255.175781 427.078125 253.402344 426.730469 251.585938 C 426.105469 248.335938 425.617188 245.0625 425.09375 241.792969 C 424.941406 240.839844 424.886719 239.871094 424.757812 238.914062 C 424.734375 238.742188 424.550781 238.59375 424.535156 238.570312 C 424.574219 238.023438 424.660156 237.574219 424.628906 237.132812 C 424.472656 234.765625 424.253906 232.40625 424.117188 230.039062 C 423.757812 223.757812 423.449219 217.472656 423.085938 211.195312 C 422.875 207.527344 422.609375 203.867188 422.359375 200.203125 C 422.316406 199.507812 422.097656 199.421875 421.546875 199.804688 C 421.4375 199.652344 421.28125 199.351562 421.226562 199.371094 C 420.886719 199.480469 420.566406 199.65625 420.128906 199.867188 C 420.035156 199.667969 419.835938 199.417969 419.832031 199.164062 C 419.832031 199.007812 420.113281 198.726562 420.289062 198.707031 C 420.664062 198.667969 421.050781 198.773438 421.433594 198.792969 C 421.640625 198.800781 421.882812 198.808594 422.050781 198.714844 C 422.792969 198.292969 422.140625 197.675781 422.1875 197.160156 C 422.234375 196.675781 421.933594 196.132812 421.691406 195.664062 C 421.480469 195.257812 421.132812 194.921875 420.816406 194.519531 C 420.773438 194.761719 420.738281 194.964844 420.695312 195.199219 C 420.5 195.023438 420.347656 194.777344 420.222656 194.789062 C 419.527344 194.859375 419.035156 194.546875 418.601562 194.066406 C 418.257812 193.6875 417.785156 193.671875 417.578125 194.105469 C 417.398438 194.476562 417.371094 194.925781 417.273438 195.363281 C 417.039062 195.199219 416.683594 194.953125 416.328125 194.703125 C 416.269531 194.753906 416.210938 194.808594 416.15625 194.859375 C 416.261719 195.089844 416.429688 195.3125 416.457031 195.550781 C 416.484375 195.769531 416.359375 196.011719 416.296875 196.242188 C 417.078125 196.015625 417.378906 196.269531 417.222656 197.058594 C 416.835938 197.058594 416.445312 197.058594 416.054688 197.058594 C 416.039062 197.335938 416.027344 197.617188 416.003906 198.0625 C 415.769531 197.9375 415.570312 197.832031 415.375 197.726562 C 415.371094 197.71875 415.371094 197.710938 415.367188 197.703125 C 415.363281 197.710938 415.359375 197.714844 415.355469 197.71875 L 415.375 197.734375 C 415.089844 197.710938 414.800781 197.6875 414.519531 197.664062 C 414.425781 197.183594 414.679688 196.300781 414.953125 196.117188 C 414.960938 196.117188 414.96875 196.117188 414.976562 196.117188 C 414.976562 196.109375 414.972656 196.105469 414.972656 196.101562 L 414.945312 196.117188 C 414.699219 195.648438 414.589844 195.21875 414.894531 194.679688 C 415.046875 194.414062 414.992188 193.761719 414.796875 193.625 C 414.464844 193.398438 413.914062 193.265625 413.601562 193.863281 C 413.492188 193.640625 413.414062 193.46875 413.332031 193.300781 C 413.277344 193.304688 413.222656 193.308594 413.167969 193.3125 C 413.101562 193.566406 413.035156 193.820312 412.964844 194.109375 C 412.742188 193.703125 412.546875 193.34375 412.328125 192.9375 C 412.738281 192.765625 413.046875 192.632812 413.503906 192.4375 C 413.015625 192.316406 412.671875 192.230469 412.375 192.15625 C 411.40625 192.945312 410.808594 193.953125 410.472656 195.105469 C 409.542969 198.324219 408.585938 201.535156 407.734375 204.773438 C 406.085938 211.039062 404.460938 217.308594 402.910156 223.597656 C 402.210938 226.441406 401.386719 229.273438 401.214844 232.253906 C 401.175781 232.230469 401.089844 232.179688 401.015625 232.140625 C 400.441406 233.835938 400.632812 235.6875 399.945312 237.375 C 399.785156 237.769531 399.875 238.257812 399.792969 238.695312 C 399.441406 240.667969 399.058594 242.636719 398.703125 244.609375 C 398.53125 245.578125 398.445312 246.558594 398.234375 247.515625 C 398.03125 248.433594 398.335938 249.363281 397.917969 250.308594 C 397.546875 251.140625 397.578125 252.15625 397.453125 253.089844 C 397.308594 254.179688 397.226562 255.273438 397.039062 256.355469 C 396.851562 257.410156 396.96875 258.492188 396.722656 259.546875 C 396.675781 259.738281 396.875 259.992188 396.996094 260.300781 C 396.925781 260.414062 396.792969 260.625 396.660156 260.835938 C 396.699219 260.890625 396.738281 260.949219 396.777344 261.003906 C 397.03125 260.902344 397.28125 260.800781 397.550781 260.6875 C 397.648438 261.011719 397.589844 261.332031 397.058594 261.234375 C 396.597656 261.152344 396.5 261.429688 396.445312 261.742188 C 396.359375 262.246094 396.285156 262.757812 396.273438 263.265625 C 396.25 264.425781 396.265625 265.582031 396.265625 266.714844 C 396.496094 266.714844 396.71875 266.714844 396.953125 266.714844 C 396.898438 266.953125 396.777344 267.152344 396.832031 267.277344 C 397.335938 268.425781 398.835938 268.785156 399.9375 268.085938 C 400.304688 267.847656 400.632812 267.667969 401.164062 268.046875 C 401.875 268.554688 402.671875 269.105469 403.664062 268.949219 C 404.425781 268.824219 405.238281 268.835938 405.816406 268.164062 C 405.996094 268.28125 406.210938 268.421875 406.4375 268.566406 C 406.597656 267.925781 406.804688 267.363281 406.871094 266.789062 C 407.097656 264.878906 407.230469 262.957031 407.476562 261.050781 C 408.027344 256.730469 408.625 252.417969 409.210938 248.101562 C 409.277344 247.640625 409.246094 247.03125 409.523438 246.765625 C 409.769531 246.53125 410.386719 246.710938 410.832031 246.648438 C 411.683594 246.527344 412.523438 246.347656 413.375 246.222656 C 414.25 246.089844 414.625 246.269531 414.683594 246.785156 C 414.78125 247.671875 414.84375 248.566406 414.988281 249.449219 C 415.671875 253.652344 416.570312 257.804688 418.054688 261.808594 C 418.78125 263.761719 419.539062 265.730469 421.136719 267.171875 C 421.816406 267.78125 422.632812 268.269531 423.453125 268.675781 C 423.894531 268.894531 424.476562 268.824219 425.152344 268.90625 C 425.484375 267.957031 426.398438 268.1875 427.285156 268.3125 C 427.4375 268.335938 427.601562 268.28125 427.753906 268.308594 C 428.335938 268.417969 428.613281 268.039062 428.5625 267.601562 C 428.46875 266.8125 429.050781 266.632812 429.507812 266.320312 C 429.710938 266.1875 429.964844 266.128906 430.175781 266.003906 C 431.386719 265.273438 431.402344 265.050781 430.484375 264 C 430.175781 263.644531 429.976562 263.199219 429.738281 262.808594 Z M 397.449219 259.867188 C 397.800781 259.46875 398.066406 259.167969 398.382812 258.808594 C 398.636719 259.683594 398.347656 260.03125 397.449219 259.867188 Z M 400.964844 249.875 C 400.609375 249.832031 400.261719 249.746094 399.910156 249.671875 C 399.929688 249.589844 399.949219 249.507812 399.964844 249.425781 C 400.3125 249.425781 400.660156 249.425781 401.105469 249.425781 C 401.058594 249.574219 400.992188 249.878906 400.964844 249.875 Z M 411.535156 235.441406 C 411.96875 233.464844 412.378906 231.605469 412.785156 229.746094 C 412.839844 229.753906 412.898438 229.757812 412.953125 229.765625 C 413.066406 231.519531 413.175781 233.277344 413.296875 235.132812 C 412.710938 235.234375 412.171875 235.332031 411.535156 235.441406 Z M 419.964844 203.066406 C 419.722656 203.09375 419.363281 202.863281 419.195312 202.644531 C 418.910156 202.277344 418.734375 201.828125 418.523438 201.40625 C 418.503906 201.371094 418.570312 201.296875 418.613281 201.210938 C 419.050781 201.324219 419.460938 202.289062 420 201.242188 C 419.757812 202.167969 420.746094 202.078125 421.011719 202.574219 C 420.648438 202.757812 420.320312 203.023438 419.964844 203.066406 Z M 365.488281 185.261719 C 365.488281 185.242188 365.554688 185.226562 365.597656 185.207031 C 365.65625 185.363281 365.71875 185.523438 365.8125 185.769531 C 367.578125 184.996094 369.65625 185.296875 371.300781 183.96875 C 371.332031 183.984375 371.488281 184.140625 371.625 184.121094 C 372.261719 184.039062 372.910156 183.960938 373.519531 183.773438 C 374.257812 183.546875 374.902344 183.097656 375.765625 183.175781 C 376.378906 183.234375 376.871094 182.566406 376.710938 182.136719 C 376.652344 181.980469 376.496094 181.855469 376.453125 181.695312 C 376.199219 180.71875 375.960938 179.738281 375.722656 178.757812 C 375.59375 178.226562 375.46875 177.695312 375.363281 177.164062 C 375.292969 176.800781 375.308594 176.417969 375.207031 176.066406 C 374.945312 175.183594 374.574219 174.324219 374.371094 173.429688 C 374.230469 172.785156 373.941406 172.546875 373.324219 172.636719 C 373.082031 172.671875 372.835938 172.691406 372.597656 172.75 C 369.648438 173.480469 366.699219 174.222656 363.75 174.957031 C 360.46875 175.773438 357.1875 176.574219 353.914062 177.410156 C 353.144531 177.605469 352.402344 177.925781 351.53125 178.226562 C 351.472656 178.21875 351.230469 178.121094 351.03125 178.171875 C 348.507812 178.804688 345.988281 179.433594 343.480469 180.109375 C 340.460938 180.921875 337.433594 181.703125 334.449219 182.632812 C 330.40625 183.898438 326.394531 185.265625 322.390625 186.648438 C 321.5 186.957031 320.597656 187.261719 319.796875 187.867188 C 319.292969 188.253906 318.519531 188.28125 317.867188 188.484375 C 317 188.753906 316.140625 189.046875 315.273438 189.308594 C 314.933594 189.414062 314.433594 189.347656 314.261719 189.5625 C 313.699219 190.257812 313.054688 190.964844 313.300781 192.007812 C 313.585938 193.199219 313.835938 194.398438 314.09375 195.597656 C 314.128906 195.765625 314.113281 195.949219 314.148438 196.121094 C 314.207031 196.410156 314.289062 196.695312 314.378906 197.046875 C 314.347656 198.355469 314.992188 199.578125 315.394531 201.019531 C 315.734375 200.890625 316.1875 200.855469 316.375 200.613281 C 316.59375 200.332031 316.582031 199.871094 316.695312 199.375 C 316.730469 199.558594 316.757812 199.636719 316.757812 199.714844 C 316.785156 200.617188 316.789062 200.648438 317.648438 200.535156 C 319.132812 200.339844 320.609375 200.105469 322.089844 199.871094 C 322.273438 199.839844 322.441406 199.699219 322.621094 199.632812 C 322.710938 199.601562 322.824219 199.585938 322.914062 199.609375 C 323.488281 199.757812 324.488281 199.105469 324.375 198.648438 C 324.152344 197.730469 324.15625 197.726562 325.046875 197.417969 C 325.539062 197.25 325.859375 196.757812 326.464844 196.769531 C 326.9375 196.777344 327.023438 196.375 327.066406 195.953125 C 327.09375 195.699219 327.289062 195.460938 327.410156 195.214844 C 327.578125 195.324219 327.730469 195.5 327.910156 195.535156 C 328.433594 195.644531 329.019531 195.875 329.488281 195.738281 C 331.28125 195.226562 333.039062 194.582031 334.8125 193.996094 C 335.792969 193.667969 336.769531 193.328125 337.761719 193.046875 C 338.851562 192.734375 339.953125 192.46875 341.050781 192.199219 C 341.585938 192.070312 342.132812 191.976562 342.675781 191.867188 C 342.542969 192.335938 342.414062 192.636719 342.378906 192.949219 C 342.257812 194.03125 342.199219 195.121094 342.0625 196.199219 C 341.890625 197.515625 341.625 198.816406 341.460938 200.132812 C 341.175781 202.472656 340.917969 204.816406 340.679688 207.164062 C 340.578125 208.183594 340.585938 209.214844 340.492188 210.234375 C 340.417969 211.007812 340.242188 211.773438 340.148438 212.546875 C 340.121094 212.761719 340.230469 212.992188 340.304688 213.34375 C 340.269531 213.429688 340.128906 213.644531 340.09375 213.875 C 339.945312 214.929688 339.796875 215.988281 339.707031 217.050781 C 339.570312 218.734375 339.464844 220.417969 339.375 222.105469 C 339.320312 223.078125 339.355469 224.054688 339.304688 225.027344 C 339.261719 225.898438 339.136719 226.761719 339.078125 227.632812 C 339.027344 228.386719 339.035156 229.148438 338.992188 229.902344 C 338.921875 231.101562 338.808594 232.300781 338.769531 233.5 C 338.761719 233.730469 339.019531 233.964844 339.160156 234.199219 C 339.1875 234.246094 339.230469 234.289062 339.289062 234.355469 C 339.097656 234.414062 338.9375 234.460938 338.890625 234.472656 C 338.910156 234.800781 339.023438 235.09375 338.925781 235.285156 C 338.570312 235.984375 338.601562 236.628906 339.019531 237.273438 C 339.023438 237.273438 339.027344 237.273438 339.03125 237.273438 C 339.03125 237.265625 339.035156 237.261719 339.035156 237.257812 C 339.035156 237.261719 339.03125 237.265625 339.03125 237.273438 C 339.285156 237.230469 339.648438 237.347656 339.566406 236.851562 C 339.554688 236.773438 339.714844 236.667969 339.902344 236.453125 C 339.953125 236.980469 339.984375 237.328125 340.035156 237.910156 C 340.480469 237.417969 340.804688 237.058594 341.097656 236.734375 C 341.222656 237.003906 341.402344 237.390625 341.621094 237.863281 C 341.132812 237.890625 340.726562 237.910156 340.261719 237.9375 C 340.320312 238.117188 340.355469 238.246094 340.429688 238.476562 C 340.144531 238.390625 339.921875 238.328125 339.699219 238.261719 C 340.152344 238.980469 340.074219 239.261719 339.339844 239.355469 C 339.339844 238.960938 339.339844 238.574219 339.339844 238.183594 C 338.871094 238 338.949219 237.636719 339.03125 237.273438 C 338.855469 237.894531 338.597656 238.507812 338.53125 239.140625 C 338.4375 240.058594 338.484375 240.996094 338.476562 241.921875 C 338.464844 243.304688 338.417969 244.6875 338.457031 246.066406 C 338.539062 248.878906 338.632812 251.691406 338.796875 254.503906 C 338.886719 256.007812 339.042969 257.519531 339.328125 258.992188 C 339.574219 260.253906 340.027344 261.476562 340.4375 262.699219 C 340.507812 262.902344 340.820312 263.152344 341.019531 263.152344 C 341.332031 263.148438 341.636719 262.925781 341.957031 262.839844 C 342.566406 262.679688 343.214844 262.632812 343.78125 262.386719 C 344.46875 262.089844 345.460938 262.523438 345.730469 261.71875 C 346.414062 261.71875 346.964844 261.71875 347.6875 261.71875 C 347.460938 261.515625 347.363281 261.429688 347.253906 261.335938 C 347.445312 261.171875 347.605469 261.03125 347.761719 260.894531 C 347.773438 260.953125 347.785156 261.011719 347.796875 261.070312 C 348.777344 261.011719 349.765625 261.007812 350.722656 260.484375 C 350.648438 259.757812 350.644531 259.019531 350.488281 258.320312 C 349.769531 255.101562 349.503906 251.835938 349.421875 248.558594 C 349.363281 246.253906 349.460938 243.945312 349.496094 241.640625 C 349.503906 240.949219 349.527344 240.253906 349.53125 239.5625 C 349.542969 237.382812 349.542969 235.203125 349.5625 233.023438 C 349.566406 232.675781 349.628906 232.324219 349.679688 231.980469 C 349.761719 231.433594 349.871094 230.894531 349.933594 230.347656 C 349.984375 229.914062 349.976562 229.472656 350 229.035156 C 350.0625 227.765625 350.136719 226.496094 350.203125 225.226562 C 350.253906 224.210938 350.289062 223.191406 350.347656 222.175781 C 350.371094 221.777344 350.453125 221.382812 350.484375 220.980469 C 350.59375 219.585938 350.664062 218.183594 350.792969 216.789062 C 350.933594 215.265625 351.121094 213.75 351.285156 212.234375 C 351.386719 211.304688 351.445312 210.371094 351.585938 209.449219 C 351.722656 208.546875 351.605469 207.644531 351.8125 206.730469 C 352.089844 205.515625 352.21875 204.257812 352.292969 203.011719 C 352.351562 202.019531 352.808594 200.976562 352.078125 200.023438 C 352.023438 199.945312 352.1875 199.679688 352.277344 199.519531 C 352.375 199.347656 352.570312 199.207031 352.617188 199.023438 C 352.761719 198.503906 352.894531 197.972656 352.945312 197.4375 C 352.972656 197.132812 352.832031 196.8125 352.761719 196.476562 C 352.863281 196.3125 353.09375 196.085938 353.128906 195.832031 C 353.429688 193.683594 353.714844 191.53125 353.949219 189.375 C 354 188.925781 354.144531 188.777344 354.558594 188.675781 C 356.269531 188.261719 357.972656 187.804688 359.679688 187.375 C 361.191406 186.992188 362.710938 186.65625 364.207031 186.234375 C 364.722656 186.089844 365.410156 186.039062 365.488281 185.261719 Z M 370.949219 179.847656 C 371.167969 180.46875 370.886719 180.710938 369.972656 180.5625 C 370.367188 180.269531 370.65625 180.0625 370.949219 179.847656 Z M 317.917969 191.980469 C 317.777344 191.8125 317.632812 191.640625 317.488281 191.464844 C 317.933594 191.082031 318.292969 191.132812 318.617188 191.582031 C 318.394531 191.707031 318.175781 191.835938 317.917969 191.980469 Z M 339.125 188.585938 C 339.042969 188.574219 338.945312 188.472656 338.910156 188.390625 C 338.890625 188.335938 338.949219 188.1875 339 188.171875 C 339.332031 188.066406 339.671875 187.984375 340.058594 187.882812 C 339.96875 188.574219 339.578125 188.648438 339.125 188.585938 Z M 340.875 236.261719 C 340.828125 236.273438 340.777344 236.285156 340.734375 236.296875 C 340.671875 236.109375 340.613281 235.921875 340.550781 235.722656 C 340.28125 235.699219 340 235.675781 339.714844 235.65625 C 339.710938 235.59375 339.707031 235.53125 339.707031 235.464844 C 340.078125 235.433594 340.453125 235.398438 340.875 235.363281 C 340.875 235.714844 340.875 235.988281 340.875 236.261719 Z M 341.902344 215.664062 C 341.902344 215.445312 341.902344 215.253906 341.902344 214.957031 C 342.3125 215.070312 342.675781 215.167969 343.042969 215.265625 C 343.054688 215.304688 343.0625 215.34375 343.074219 215.382812 C 342.703125 215.472656 342.328125 215.5625 341.902344 215.664062 Z M 342.644531 208.167969 C 342.4375 208.074219 342.183594 207.960938 341.847656 207.808594 C 342.367188 207.65625 342.804688 207.523438 343.417969 207.34375 C 343.0625 207.71875 342.859375 207.9375 342.644531 208.167969 Z M 343.382812 185.082031 C 343.257812 184.902344 343.132812 184.722656 342.929688 184.429688 C 342.90625 184.660156 342.945312 184.882812 342.855469 185.035156 C 342.726562 185.253906 342.507812 185.417969 342.324219 185.609375 C 342.285156 185.492188 342.25 185.375 342.210938 185.257812 C 342.210938 185.257812 342.207031 185.257812 342.207031 185.257812 C 342.207031 185.261719 342.207031 185.261719 342.207031 185.265625 C 342.207031 185.265625 342.203125 185.265625 342.203125 185.261719 C 341.972656 185.445312 341.746094 185.628906 341.542969 185.792969 C 341.457031 185.523438 341.347656 185.183594 341.234375 184.84375 C 341.257812 184.789062 341.28125 184.738281 341.300781 184.6875 C 341.601562 184.878906 341.902344 185.070312 342.203125 185.261719 C 342.203125 185.261719 342.207031 185.261719 342.207031 185.257812 C 342.226562 185.019531 342.242188 184.78125 342.261719 184.46875 C 343.453125 183.964844 343.605469 184.007812 343.382812 185.082031 Z M 345.621094 242.496094 C 345.375 242.609375 345.128906 242.726562 344.808594 242.878906 C 344.753906 242.71875 344.699219 242.550781 344.585938 242.207031 C 345.039062 242.277344 345.332031 242.320312 345.625 242.363281 C 345.625 242.40625 345.625 242.453125 345.621094 242.496094 Z M 347.992188 200.007812 C 348.539062 199.640625 348.941406 199.371094 349.347656 199.097656 C 349.398438 199.171875 349.445312 199.242188 349.492188 199.316406 C 349 199.46875 349.035156 200.453125 347.992188 200.007812 Z M 352.699219 183.546875 C 352.660156 183.503906 352.625 183.457031 352.589844 183.410156 C 352.980469 182.707031 353.15625 182.566406 353.722656 182.71875 C 353.382812 182.996094 353.039062 183.269531 352.699219 183.546875 Z M 358.667969 183.917969 C 358.527344 183.816406 358.40625 183.726562 358.234375 183.605469 C 358.1875 183.785156 358.140625 183.957031 358.125 184.023438 C 357.789062 184.023438 357.527344 184.023438 357.234375 184.023438 C 357.234375 183.910156 357.234375 183.71875 357.234375 183.523438 C 357.824219 183.3125 358.402344 183.105469 359.074219 182.863281 C 358.917969 183.273438 358.804688 183.5625 358.667969 183.917969 Z M 596.882812 177.78125 C 596.59375 178.574219 596.3125 179.210938 596.132812 179.878906 C 595.960938 180.515625 595.960938 181.203125 595.765625 181.828125 C 595.28125 183.363281 594.707031 184.867188 594.210938 186.398438 C 594.050781 186.898438 594.082031 187.457031 593.929688 187.960938 C 593.429688 189.628906 592.910156 191.292969 592.335938 192.9375 C 592.140625 193.480469 591.808594 194.003906 591.429688 194.445312 C 591.203125 194.707031 591.691406 195.339844 591.171875 195.222656 C 591.117188 195.765625 591.164062 196.265625 591.011719 196.691406 C 590.320312 198.578125 589.644531 200.476562 588.832031 202.316406 C 587.601562 205.117188 586.398438 207.949219 584.929688 210.628906 C 583.179688 213.820312 581.183594 216.875 578.394531 219.316406 C 577.925781 219.726562 577.691406 220.210938 577.613281 220.867188 C 577.027344 225.664062 576.359375 230.449219 575.777344 235.242188 C 575.253906 239.535156 574.734375 243.835938 575.089844 248.171875 C 575.203125 249.523438 575.394531 250.90625 575.828125 252.183594 C 576.179688 253.210938 576.949219 254.09375 577.53125 255.039062 C 577.617188 255.175781 577.714844 255.296875 577.800781 255.425781 C 578.121094 255.898438 578.121094 256.230469 577.585938 256.628906 C 575.460938 258.210938 573.390625 259.855469 571.296875 261.476562 C 571.207031 261.546875 571.109375 261.605469 571.035156 261.683594 C 569.832031 262.960938 569.804688 262.597656 568.699219 261.628906 C 566.011719 259.269531 565.0625 256.054688 564.4375 252.722656 C 563.636719 248.441406 563.675781 244.113281 564.144531 239.808594 C 564.726562 234.449219 565.488281 229.109375 566.167969 223.761719 C 566.175781 223.695312 566.183594 223.628906 566.195312 223.5625 C 566.332031 222.75 566.421875 222.035156 565.394531 221.605469 C 564.71875 221.324219 564.082031 220.796875 563.613281 220.226562 C 562.71875 219.140625 561.492188 218.3125 561.082031 216.828125 C 560.871094 216.066406 560.328125 215.402344 560.03125 214.65625 C 558.90625 211.816406 558.550781 208.820312 558.367188 205.800781 C 557.957031 198.929688 558.710938 192.101562 559.117188 185.261719 C 559.195312 183.910156 559.160156 182.539062 559.082031 181.183594 C 559.03125 180.277344 559.398438 179.511719 559.652344 178.695312 C 559.945312 177.769531 560.777344 177.730469 561.460938 177.359375 C 562.242188 176.933594 562.996094 177.195312 563.75 177.070312 C 564.054688 177.015625 564.40625 177.15625 564.71875 177.261719 C 565.183594 177.421875 565.625 177.664062 566.097656 177.800781 C 566.378906 177.882812 566.703125 177.820312 567.003906 177.839844 C 567.84375 177.898438 568.703125 177.878906 569.511719 178.074219 C 569.832031 178.148438 570.199219 178.683594 570.257812 179.050781 C 570.386719 179.863281 570.382812 180.703125 570.339844 181.527344 C 570.113281 185.800781 569.792969 190.070312 569.625 194.34375 C 569.476562 197.992188 569.410156 201.648438 569.457031 205.296875 C 569.484375 207.277344 569.765625 209.261719 570.617188 211.230469 C 571.058594 210.828125 571.484375 210.488281 571.859375 210.09375 C 573.582031 208.289062 574.878906 206.175781 575.929688 203.953125 C 577.378906 200.882812 578.621094 197.71875 579.957031 194.597656 C 580.335938 193.710938 580.734375 192.832031 581.125 191.949219 C 581.128906 191.949219 581.128906 191.949219 581.128906 191.949219 C 581.042969 193.023438 581.214844 193.257812 581.9375 193.042969 C 581.621094 192.707031 582.019531 191.859375 581.128906 191.949219 C 581.132812 191.945312 581.132812 191.941406 581.132812 191.9375 C 581.128906 191.941406 581.128906 191.945312 581.125 191.949219 C 581.121094 191.949219 581.121094 191.949219 581.117188 191.949219 C 581.351562 191.113281 581.554688 190.269531 581.824219 189.445312 C 582.609375 187.035156 583.410156 184.628906 584.226562 182.226562 C 584.480469 181.480469 584.867188 180.773438 585.070312 180.019531 C 585.375 178.886719 585.558594 177.722656 585.8125 176.574219 C 585.921875 176.074219 586.042969 175.570312 586.207031 175.085938 C 586.597656 173.898438 586.835938 173.71875 588.207031 174.15625 C 588.007812 174.355469 587.792969 174.570312 587.578125 174.785156 C 587.894531 174.878906 588.210938 174.96875 588.585938 175.082031 C 588.640625 174.710938 588.675781 174.480469 588.710938 174.246094 C 588.753906 174.226562 588.800781 174.207031 588.84375 174.1875 C 589.046875 174.753906 589.25 175.320312 589.496094 176.003906 C 589.75 175.882812 589.996094 175.761719 590.277344 175.628906 C 590.644531 175.925781 590.5625 176.148438 590.035156 176.335938 C 590.566406 176.191406 590.664062 177.234375 591.292969 176.710938 C 591.667969 176.402344 592.046875 176.101562 592.453125 175.769531 C 592.828125 176.421875 593.496094 176.5625 594.328125 176.257812 C 594.320312 176.324219 594.3125 176.386719 594.304688 176.453125 C 594.152344 176.535156 593.996094 176.617188 593.789062 176.726562 C 594.148438 176.898438 594.355469 177.378906 594.851562 176.917969 C 594.953125 176.820312 595.359375 177.046875 595.632812 177.136719 C 595.609375 177.324219 595.582031 177.511719 595.542969 177.78125 C 595.867188 177.78125 596.269531 177.78125 596.882812 177.78125 Z M 709.984375 176.488281 C 709.433594 175.714844 708.675781 175.503906 707.785156 175.433594 C 707.707031 175.289062 707.613281 175.109375 707.507812 174.914062 C 707.039062 175.011719 706.636719 175.085938 706.398438 174.445312 C 706.195312 173.902344 704.882812 173.683594 704.410156 174.042969 C 704.242188 174.167969 704.140625 174.386719 703.941406 174.648438 C 703.816406 174.410156 703.6875 174.238281 703.628906 174.042969 C 703.519531 173.671875 703.28125 173.609375 703.035156 173.832031 C 702.492188 174.324219 702.261719 174.050781 702.121094 173.417969 C 701.554688 173.675781 701.042969 173.910156 700.417969 174.195312 C 700.691406 174.308594 700.808594 174.359375 700.898438 174.398438 C 700.710938 174.65625 700.492188 174.882812 700.367188 175.148438 C 700.113281 175.695312 699.910156 176.261719 699.695312 176.820312 C 699.085938 178.382812 698.425781 179.929688 697.894531 181.515625 C 697.386719 183.03125 697.027344 184.597656 696.582031 186.132812 C 696.222656 187.382812 695.824219 188.617188 695.460938 189.867188 C 695.125 191.011719 694.804688 192.164062 694.507812 193.320312 C 694.453125 193.53125 694.5625 193.785156 694.59375 193.988281 C 694.433594 194.214844 694.183594 194.433594 694.113281 194.703125 C 693.769531 195.972656 693.4375 197.25 693.167969 198.535156 C 692.289062 202.699219 691.40625 206.859375 690.59375 211.039062 C 690.050781 213.824219 689.644531 216.632812 689 219.398438 C 688.59375 221.136719 688.320312 222.902344 687.976562 224.652344 C 687.886719 225.09375 687.863281 225.425781 688.472656 225.367188 C 688.546875 225.363281 688.632812 225.488281 688.710938 225.554688 C 688 225.375 687.742188 225.671875 687.640625 226.265625 C 687.457031 227.332031 687.257812 228.394531 687.0625 229.457031 C 686.953125 230.070312 686.84375 230.683594 686.730469 231.296875 C 686.453125 232.765625 686.160156 234.230469 685.890625 235.699219 C 685.605469 237.261719 685.347656 238.832031 685.066406 240.394531 C 684.894531 241.347656 684.707031 242.300781 684.488281 243.460938 C 685.007812 243.304688 685.539062 243.308594 685.726562 243.058594 C 686.113281 242.535156 686.4375 242.386719 686.960938 242.800781 C 685.882812 243.679688 685.722656 244.027344 686.007812 244.640625 C 686.605469 244.640625 687.152344 244.640625 687.8125 244.640625 C 687.644531 244.871094 687.566406 244.976562 687.460938 245.121094 C 687.617188 245.1875 687.714844 245.226562 687.816406 245.265625 C 688.800781 245.632812 689.226562 245.304688 689.144531 244.242188 C 689.109375 243.800781 689.269531 243.554688 689.757812 243.597656 C 690.09375 243.625 690.453125 243.671875 690.511719 243.179688 C 690.511719 243.15625 690.574219 243.140625 690.605469 243.125 C 690.742188 243.226562 690.875 243.328125 691.007812 243.425781 C 690.835938 243.675781 690.671875 243.90625 690.511719 244.136719 C 691.105469 244.597656 691.625 245.039062 692.410156 244.988281 C 692.695312 244.972656 693 245.230469 693.289062 245.375 C 693.65625 245.554688 693.910156 245.539062 693.9375 245.042969 C 693.738281 244.96875 693.558594 244.898438 693.304688 244.804688 C 693.550781 244.40625 693.769531 244.046875 693.929688 243.789062 C 694.382812 243.910156 694.691406 243.992188 695.019531 244.078125 C 694.890625 244.546875 694.773438 244.984375 694.628906 245.53125 C 694.667969 245.566406 694.824219 245.699219 694.992188 245.84375 C 695.15625 245.308594 695.34375 244.847656 695.441406 244.363281 C 695.980469 241.695312 696.507812 239.023438 697.019531 236.347656 C 697.46875 233.984375 697.90625 231.613281 698.324219 229.242188 C 698.371094 228.964844 698.246094 228.65625 698.207031 228.402344 C 698.355469 228.144531 698.59375 227.863281 698.675781 227.542969 C 698.761719 227.195312 698.777344 226.789062 698.683594 226.449219 C 698.53125 225.898438 699.003906 225.636719 699.117188 225.21875 C 699.492188 223.886719 699.589844 222.503906 699.902344 221.15625 C 700.464844 218.753906 700.84375 216.3125 701.355469 213.898438 C 702.554688 208.230469 703.699219 202.550781 705.027344 196.914062 C 706.488281 190.707031 708.324219 184.601562 710.570312 178.625 C 710.792969 178.027344 710.949219 177.40625 711.074219 176.996094 C 710.628906 176.800781 710.167969 176.742188 709.984375 176.488281 Z M 690.023438 228.289062 C 689.660156 228.472656 689.3125 228.644531 688.960938 228.824219 C 688.777344 228.519531 688.617188 228.25 688.457031 227.976562 C 688.730469 227.820312 689.003906 227.660156 689.3125 227.480469 C 689.503906 227.519531 689.757812 227.574219 690.023438 227.628906 C 690.023438 227.859375 690.023438 228.078125 690.023438 228.289062 Z M 691.703125 236.273438 C 691.683594 236.222656 691.664062 236.171875 691.640625 236.121094 C 691.878906 236.019531 692.113281 235.871094 692.359375 235.835938 C 692.445312 235.828125 692.570312 236.105469 692.757812 236.363281 C 692.285156 236.324219 691.992188 236.300781 691.703125 236.273438 Z M 694.296875 255.398438 C 694.398438 254.8125 694.292969 254.074219 694 253.570312 C 693.703125 253.066406 693.066406 253.445312 692.582031 253.5625 C 692.425781 253.597656 692.273438 253.640625 692.03125 253.699219 C 692.335938 253.773438 692.53125 253.824219 692.785156 253.882812 C 692.296875 254.210938 691.691406 254.003906 691.4375 253.570312 C 690.664062 253.527344 689.953125 253.492188 689.4375 253.460938 C 689.207031 253.765625 689.03125 253.988281 688.855469 254.214844 C 687.984375 253.503906 686.617188 253.089844 686.492188 253.503906 C 686.667969 253.542969 686.84375 253.585938 687.015625 253.625 C 687.027344 253.6875 687.035156 253.75 687.046875 253.8125 C 686.789062 253.910156 686.53125 254.011719 686.273438 254.113281 C 686.265625 254.074219 686.253906 254.035156 686.246094 253.992188 C 686.058594 254.214844 685.871094 254.4375 685.644531 254.703125 C 685.480469 254.4375 685.367188 254.226562 685.222656 254.035156 C 685.121094 253.902344 684.992188 253.730469 684.851562 253.703125 C 684.511719 253.644531 684.160156 253.65625 683.75 253.640625 C 683.628906 254.09375 683.398438 254.597656 683.371094 255.113281 C 683.304688 256.34375 683.492188 257.609375 683.257812 258.800781 C 683.128906 259.46875 682.6875 260.125 682.496094 260.851562 C 682.265625 261.742188 681.527344 262.574219 682.457031 263.488281 C 682.257812 263.605469 682.109375 263.695312 681.910156 263.816406 C 682.207031 264.09375 682.683594 264.351562 681.984375 264.621094 C 681.945312 264.636719 681.9375 264.832031 681.964844 264.929688 C 682.152344 265.566406 681.816406 265.636719 681.351562 265.53125 C 681.289062 265.917969 681.203125 266.28125 681.183594 266.648438 C 681.171875 266.84375 681.207031 267.132812 681.332031 267.226562 C 681.882812 267.625 681.648438 268.078125 681.371094 268.410156 C 680.960938 268.902344 681.386719 269.097656 681.605469 269.371094 C 681.859375 269.691406 682.136719 269.988281 682.40625 270.292969 C 682.5625 270.476562 682.71875 270.660156 682.875 270.84375 C 682.988281 270.664062 683.003906 270.585938 682.96875 270.539062 C 682.839844 270.359375 682.382812 270.261719 682.742188 269.953125 C 682.976562 269.75 683.285156 269.464844 683.640625 269.910156 C 683.84375 270.167969 685.328125 269.9375 685.496094 269.644531 C 685.585938 269.496094 685.554688 269.277344 685.582031 269.070312 C 685.226562 269.039062 684.941406 269.011719 684.660156 268.984375 C 684.464844 268.976562 684.222656 269.035156 684.082031 268.945312 C 683.871094 268.800781 683.746094 268.597656 683.539062 268.953125 C 683.503906 269.019531 683.257812 268.980469 683.113281 268.960938 C 683.082031 268.957031 683.027344 268.773438 683.054688 268.742188 C 683.140625 268.644531 683.269531 268.503906 683.371094 268.515625 C 683.746094 268.546875 684.117188 268.636719 684.492188 268.707031 C 683.949219 267.984375 685.257812 268.144531 685.058594 267.742188 C 685.519531 267.71875 685.996094 267.691406 686.542969 267.660156 C 686.515625 267.867188 686.558594 268.175781 686.429688 268.359375 C 685.9375 269.054688 685.960938 269.234375 686.671875 269.554688 C 686.621094 269.886719 686.570312 270.207031 686.519531 270.542969 C 686.316406 270.582031 686.125 270.617188 686.039062 270.636719 C 685.898438 270.910156 685.84375 271.238281 685.6875 271.296875 C 685.015625 271.535156 685.230469 272.144531 685.144531 272.585938 C 685.105469 272.757812 685.480469 273.070312 685.730469 273.214844 C 685.824219 273.269531 686.191406 273.085938 686.257812 272.9375 C 686.515625 272.335938 686.707031 271.707031 686.933594 271.054688 C 687.050781 271.25 687.144531 271.410156 687.300781 271.675781 C 687.429688 271.390625 687.503906 271.222656 687.625 270.941406 C 687.808594 271.527344 688.042969 271.683594 688.523438 271.382812 C 688.816406 271.195312 689.28125 270.984375 689.546875 271.089844 C 690.375 271.414062 690.867188 271.003906 691.300781 270.460938 C 691.703125 269.957031 692.011719 269.382812 692.386719 268.859375 C 692.457031 268.757812 692.660156 268.667969 692.769531 268.695312 C 693.492188 268.890625 693.644531 268.476562 693.640625 267.902344 C 693.632812 267.128906 693.589844 266.351562 693.609375 265.578125 C 693.628906 264.945312 693.695312 264.308594 693.785156 263.683594 C 693.929688 262.667969 694.167969 261.660156 694.257812 260.640625 C 694.300781 260.109375 694.105469 259.5625 694.019531 259.027344 C 694.21875 258.710938 694.539062 258.339844 694.699219 257.910156 C 694.867188 257.460938 694.878906 256.953125 694.960938 256.433594 C 694.546875 256.257812 694.171875 256.101562 694.296875 255.398438 Z M 684.390625 263.566406 C 685.167969 263.238281 685.238281 263.253906 685.679688 263.960938 C 685.292969 263.84375 684.90625 263.722656 684.390625 263.566406 Z M 687.429688 254.3125 C 687.554688 254.984375 687.390625 255.164062 686.914062 254.964844 C 686.847656 255.203125 686.785156 255.417969 686.695312 255.742188 C 686.414062 255.402344 686.25 255.207031 685.957031 254.855469 C 686.472656 254.667969 686.921875 254.5 687.429688 254.3125 Z M 686.5 266.25 C 686.652344 265.796875 686.773438 265.433594 686.949219 264.921875 C 687.1875 265.214844 687.390625 265.46875 687.617188 265.75 C 687.167969 265.953125 686.898438 266.070312 686.5 266.25 Z M 467.195312 187.886719 C 467.414062 187.355469 467.613281 186.875 467.808594 186.398438 C 467.882812 186.335938 467.957031 186.277344 468.035156 186.214844 C 468.121094 186.441406 468.207031 186.671875 468.308594 186.941406 C 468.007812 187.207031 468.074219 188.039062 467.195312 187.886719 Z M 437.035156 230.996094 C 437.277344 231.152344 437.433594 231.253906 437.582031 231.351562 C 437.769531 231.621094 437.957031 231.890625 438.152344 232.171875 C 437.941406 232.410156 437.941406 232.410156 437.289062 232.199219 C 437.203125 231.792969 437.128906 231.449219 437.035156 230.996094 Z M 437.574219 231.335938 C 437.582031 231.335938 437.589844 231.335938 437.59375 231.335938 C 437.59375 231.34375 437.59375 231.351562 437.59375 231.359375 C 437.589844 231.355469 437.585938 231.351562 437.582031 231.351562 C 437.582031 231.347656 437.578125 231.339844 437.574219 231.335938 Z M 416.046875 197.058594 C 416.042969 197.058594 416.042969 197.054688 416.039062 197.054688 C 416.042969 197.050781 416.050781 197.042969 416.054688 197.039062 C 416.054688 197.039062 416.046875 197.058594 416.046875 197.058594 Z M 415.367188 197.703125 C 415.238281 197.175781 415.105469 196.644531 414.976562 196.117188 C 415.132812 196.113281 415.289062 196.105469 415.445312 196.101562 C 415.1875 196.703125 415.726562 196.808594 416.039062 197.054688 C 415.902344 197.179688 415.765625 197.304688 415.632812 197.433594 C 415.542969 197.523438 415.457031 197.613281 415.367188 197.703125 Z M 595.652344 177.144531 C 595.648438 177.140625 595.640625 177.140625 595.632812 177.136719 C 595.636719 177.132812 595.636719 177.128906 595.636719 177.128906 C 595.640625 177.128906 595.644531 177.125 595.652344 177.125 C 595.652344 177.132812 595.652344 177.136719 595.652344 177.144531 Z M 595.648438 177.125 C 595.609375 176.878906 595.566406 176.628906 595.503906 176.28125 C 595.6875 176.257812 595.949219 176.222656 596.234375 176.1875 C 596.460938 176.8125 596.210938 177.070312 595.648438 177.125 Z M 476.429688 191.730469 C 476.429688 191.730469 476.429688 191.730469 476.429688 191.726562 Z M 476.429688 191.726562 Z M 476.425781 191.730469 C 476.195312 191.308594 475.964844 190.882812 475.730469 190.457031 C 475.5625 190.5625 475.441406 190.640625 475.316406 190.71875 C 475.316406 190.726562 475.320312 190.738281 475.316406 190.75 C 475.308594 190.75 475.300781 190.746094 475.289062 190.746094 C 475.066406 191.28125 474.667969 191.582031 474.050781 191.664062 C 474.40625 190.554688 474.414062 190.539062 475.289062 190.746094 C 475.292969 190.738281 475.296875 190.734375 475.296875 190.730469 C 475.304688 190.726562 475.3125 190.722656 475.316406 190.71875 C 475.335938 190.359375 475.089844 189.960938 475.535156 189.660156 C 475.597656 189.621094 475.539062 189.242188 475.429688 189.121094 C 475.019531 188.675781 474.558594 188.273438 474.066406 187.800781 C 473.878906 188.085938 473.753906 188.269531 473.589844 188.511719 C 473.980469 188.570312 474.261719 188.609375 474.628906 188.664062 C 474.351562 188.835938 474.066406 188.910156 474.035156 189.042969 C 473.890625 189.671875 473.484375 189.460938 473.269531 189.441406 C 473.128906 189.082031 473.03125 188.84375 472.9375 188.601562 C 472.839844 188.351562 472.253906 188.222656 472.746094 187.828125 C 472.636719 187.730469 472.484375 187.527344 472.433594 187.546875 C 471.824219 187.828125 471.226562 188.136719 470.632812 188.445312 C 470.574219 188.472656 470.519531 188.519531 470.484375 188.574219 C 470.300781 188.820312 470.128906 189.074219 469.960938 189.3125 C 470.191406 189.496094 470.402344 189.660156 470.671875 189.875 C 470.445312 190.003906 470.320312 190.085938 470.1875 190.148438 C 469.949219 190.253906 469.707031 190.34375 469.46875 190.441406 C 469.382812 190.226562 469.304688 190.011719 469.214844 189.796875 C 469.136719 189.609375 469.046875 189.425781 468.9375 189.1875 C 469.648438 189.035156 469.433594 188.300781 469.625 187.777344 C 469.644531 187.714844 469.546875 187.5625 469.46875 187.519531 C 469.382812 187.480469 469.222656 187.484375 469.152344 187.539062 C 468.667969 187.921875 468.195312 188.328125 467.726562 188.71875 C 467.644531 188.554688 467.558594 188.390625 467.394531 188.078125 C 467.09375 188.671875 466.804688 189.117188 466.636719 189.609375 C 466.277344 190.652344 465.964844 191.714844 465.660156 192.78125 C 465.398438 193.691406 465.175781 194.613281 464.941406 195.53125 C 464.664062 196.597656 464.390625 197.664062 464.113281 198.730469 C 463.765625 200.070312 463.390625 201.402344 463.066406 202.746094 C 462.746094 204.085938 462.476562 205.4375 462.1875 206.78125 C 462.167969 206.867188 462.175781 206.957031 462.148438 207.039062 C 461.953125 207.644531 461.742188 208.246094 461.570312 208.855469 C 461.535156 208.976562 461.667969 209.136719 461.691406 209.285156 C 461.769531 209.75 462.097656 210.257812 461.449219 210.613281 C 461.34375 210.671875 461.320312 210.964844 461.347656 211.136719 C 461.375 211.339844 461.492188 211.527344 461.601562 211.792969 C 461.277344 211.824219 461.019531 211.851562 460.703125 211.882812 C 460.070312 215.960938 458.980469 219.953125 458.140625 224 C 457.890625 222.585938 457.226562 221.265625 457.328125 219.792969 C 457.34375 219.609375 457.070312 219.40625 456.96875 219.265625 C 457.023438 219.078125 457.140625 218.878906 457.117188 218.699219 C 456.96875 217.636719 456.84375 216.566406 456.601562 215.523438 C 456.441406 214.832031 456.460938 214.035156 455.785156 213.550781 C 456.097656 212.929688 455.902344 210.5625 455.488281 210.261719 C 455.402344 210.3125 455.300781 210.367188 455.199219 210.425781 C 455.152344 210.382812 455.105469 210.339844 455.058594 210.300781 C 455.203125 210.128906 455.355469 209.957031 455.507812 209.78125 C 455.472656 209.332031 455.472656 208.835938 455.390625 208.355469 C 455.003906 206 454.554688 203.652344 454.207031 201.292969 C 454.046875 200.21875 454.027344 199.121094 454.015625 198.035156 C 454.007812 197.484375 454.214844 196.933594 454.230469 196.378906 C 454.246094 195.917969 454.5 195.324219 453.75 195.097656 C 453.632812 195.0625 453.558594 194.664062 453.589844 194.457031 C 453.632812 194.207031 453.828125 193.988281 453.921875 193.746094 C 454.058594 193.390625 454.105469 193.027344 453.6875 192.816406 C 453.328125 192.636719 453.042969 192.710938 452.894531 193.125 C 452.875 193.1875 452.773438 193.222656 452.632812 193.324219 C 452.542969 193.082031 452.472656 192.894531 452.425781 192.765625 C 451.535156 192.539062 450.667969 192.308594 449.804688 192.097656 C 449.265625 191.964844 448.726562 191.808594 448.179688 191.753906 C 447.550781 191.6875 446.910156 191.769531 446.285156 191.703125 C 445.402344 191.609375 444.53125 191.425781 443.652344 191.316406 C 443.539062 191.304688 443.320312 191.492188 443.285156 191.625 C 442.894531 193.121094 442.460938 194.613281 442.175781 196.132812 C 441.558594 199.421875 441.015625 202.726562 440.46875 206.03125 C 440.382812 206.539062 440.183594 207.179688 441.140625 207.246094 C 441.132812 207.308594 441.121094 207.371094 441.113281 207.429688 C 440.871094 207.550781 440.632812 207.671875 440.222656 207.875 C 440.148438 208.113281 439.964844 208.578125 439.871094 209.058594 C 439.730469 209.761719 439.667969 210.476562 439.5625 211.183594 C 439.136719 214.03125 438.675781 216.875 438.289062 219.726562 C 437.933594 222.363281 437.652344 225.007812 437.34375 227.652344 C 437.230469 228.59375 436.835938 229.609375 438.144531 230.25 C 437.378906 230.453125 437.648438 230.953125 437.59375 231.335938 C 437.894531 231.355469 438.1875 231.375 438.308594 231.382812 C 438.53125 231.785156 438.765625 232.039062 438.804688 232.324219 C 438.875 232.804688 439.019531 233.503906 438.769531 233.753906 C 438.308594 234.226562 438.550781 234.398438 438.855469 234.675781 C 438.453125 235.210938 438.253906 235.738281 438.957031 236.308594 C 438.695312 236.332031 438.511719 236.347656 438.265625 236.371094 C 438.382812 235.929688 437.789062 235.636719 438.191406 235.167969 C 438.257812 235.09375 437.929688 234.683594 437.785156 234.429688 C 437.734375 234.453125 437.6875 234.476562 437.636719 234.5 C 437.597656 234.769531 437.558594 235.042969 437.515625 235.324219 C 437.304688 235.089844 437.167969 234.914062 437 234.773438 C 436.96875 234.746094 436.730469 234.894531 436.738281 234.90625 C 436.8125 235.109375 436.929688 235.292969 437 235.496094 C 437.054688 235.660156 437.058594 235.839844 437.085938 236.015625 C 437.578125 235.980469 438.75 237.113281 438.984375 237.730469 C 439.640625 238.101562 440.164062 238.398438 440.585938 238.632812 C 440.933594 238.746094 441.191406 238.824219 441.398438 238.890625 C 441.277344 239.148438 441.195312 239.328125 441.109375 239.511719 C 441.277344 239.4375 441.4375 239.308594 441.605469 239.300781 C 441.925781 239.285156 442.285156 239.265625 442.554688 239.398438 C 442.769531 239.5 442.859375 239.671875 443.199219 239.628906 C 443.890625 239.546875 444.171875 240.074219 443.957031 240.546875 C 442.800781 240.648438 441.734375 240.746094 440.613281 240.847656 C 440.460938 240.125 439.679688 240.703125 439.167969 240.304688 C 439.257812 240.132812 439.421875 239.949219 439.445312 239.746094 C 439.484375 239.40625 439.574219 238.90625 439.394531 238.738281 C 439.019531 238.398438 438.5 238.175781 438.003906 238.023438 C 437.835938 237.96875 437.558594 238.277344 437.328125 238.421875 C 437.746094 238.84375 437.121094 239.097656 437.128906 239.488281 C 436.917969 239.214844 436.707031 238.945312 436.496094 238.671875 C 436.441406 238.667969 436.382812 238.667969 436.324219 238.664062 C 436.347656 239.046875 436.367188 239.425781 436.390625 239.808594 C 436.398438 239.808594 436.402344 239.808594 436.410156 239.808594 C 436.410156 239.800781 436.410156 239.792969 436.410156 239.789062 C 436.410156 239.792969 436.410156 239.800781 436.414062 239.808594 C 436.605469 239.808594 436.796875 239.808594 437.097656 239.808594 C 437.015625 240.066406 436.972656 240.289062 436.871094 240.476562 C 436.839844 240.527344 436.519531 240.503906 436.507812 240.464844 C 436.445312 240.253906 436.4375 240.027344 436.414062 239.808594 C 436.410156 239.808594 436.410156 239.808594 436.410156 239.808594 C 436.3125 240.5 436.269531 241.207031 436.09375 241.878906 C 435.90625 242.585938 436.230469 242.964844 436.761719 243.289062 C 436.851562 243.34375 436.941406 243.410156 437.152344 243.550781 C 436.679688 243.589844 436.363281 243.617188 435.859375 243.660156 C 435.914062 244.984375 435.96875 246.253906 436.019531 247.527344 C 436.3125 247.34375 436.605469 247.164062 437.007812 246.914062 C 437.007812 247.40625 437.007812 247.707031 437.007812 248.121094 C 436.628906 247.902344 436.320312 247.726562 436.011719 247.546875 C 435.90625 247.753906 435.722656 247.957031 435.710938 248.171875 C 435.65625 249.191406 435.644531 250.214844 435.625 251.238281 C 435.621094 251.675781 435.683594 252.117188 435.644531 252.550781 C 435.566406 253.464844 435.429688 254.371094 435.34375 255.285156 C 435.320312 255.523438 435.160156 255.863281 435.601562 255.964844 C 435.625 255.972656 435.648438 256.320312 435.582031 256.363281 C 434.804688 256.867188 435.121094 257.601562 435.226562 258.234375 C 435.285156 258.589844 435.503906 258.878906 435.152344 259.199219 C 435.125 259.226562 435.339844 259.519531 435.445312 259.691406 C 435.820312 259.449219 436.195312 259.207031 436.691406 258.890625 C 436.246094 258.785156 435.976562 258.71875 435.707031 258.652344 C 435.710938 258.585938 435.714844 258.515625 435.71875 258.449219 C 436.011719 258.398438 436.300781 258.347656 436.59375 258.296875 C 436.59375 258.261719 436.59375 258.226562 436.59375 258.191406 C 436.429688 258.140625 436.261719 258.085938 435.898438 257.976562 C 436.214844 257.792969 436.484375 257.585938 436.523438 257.621094 C 436.75 257.84375 436.96875 258.101562 437.109375 258.386719 C 437.234375 258.636719 437.214844 258.949219 437.316406 259.214844 C 437.414062 259.453125 437.589844 259.660156 437.753906 259.917969 C 437.882812 259.859375 438.027344 259.789062 438.160156 259.726562 C 438.269531 259.917969 438.355469 260.074219 438.484375 260.296875 C 438.691406 259.941406 438.84375 259.679688 439.027344 259.359375 C 439.742188 259.875 440.414062 260.359375 441.054688 260.820312 C 441.03125 260.925781 441 261.035156 440.972656 261.144531 C 441.132812 261.136719 441.296875 261.148438 441.453125 261.109375 C 442.136719 260.949219 442.507812 260.042969 443.398438 260.316406 C 443.640625 260.390625 443.945312 260.257812 444.324219 260.203125 C 444.132812 260.039062 444.019531 259.941406 443.898438 259.835938 C 444.398438 259.425781 444.640625 259.570312 445.148438 260.554688 C 445.882812 259.683594 445.5625 258.582031 445.8125 257.621094 C 445.855469 257.464844 445.5 257.207031 445.332031 257 C 446.03125 256.613281 446.539062 252.519531 446.042969 251.710938 C 446.152344 251.496094 446.300781 251.328125 446.316406 251.148438 C 446.429688 250.0625 446.523438 248.972656 446.597656 247.882812 C 446.746094 245.695312 446.839844 243.503906 447.023438 241.316406 C 447.273438 238.351562 447.585938 235.390625 447.878906 232.429688 C 447.910156 232.09375 447.984375 231.757812 448.039062 231.425781 C 448.253906 231.980469 448.339844 232.523438 448.4375 233.070312 C 449.066406 236.457031 449.679688 239.847656 450.328125 243.230469 C 450.933594 246.382812 451.535156 249.535156 452.21875 252.671875 C 452.742188 255.070312 453.394531 257.441406 453.972656 259.832031 C 454.054688 260.171875 453.929688 260.59375 454.085938 260.878906 C 454.65625 261.914062 455.25 262.941406 455.9375 263.898438 C 456.339844 264.449219 456.929688 264.867188 457.460938 265.316406 C 457.539062 265.382812 457.769531 265.351562 457.886719 265.289062 C 458.488281 264.957031 459.078125 264.625 459.195312 263.839844 C 459.226562 263.640625 459.382812 263.4375 459.53125 263.28125 C 459.753906 263.042969 460.015625 262.84375 460.238281 262.648438 C 460.433594 262.773438 460.660156 262.917969 460.804688 263.011719 C 460.648438 263.203125 460.5 263.390625 460.347656 263.578125 C 460.664062 263.59375 460.984375 263.609375 461.304688 263.625 C 461.3125 263.566406 461.324219 263.507812 461.335938 263.453125 C 461.4375 263.644531 461.542969 263.835938 461.648438 264.03125 C 461.621094 264.066406 461.589844 264.105469 461.5625 264.144531 C 461.417969 264.070312 461.277344 264.003906 461.03125 263.878906 C 461.054688 264.128906 461.074219 264.34375 461.089844 264.554688 C 461.296875 264.5 461.527344 264.484375 461.703125 264.382812 C 461.96875 264.222656 462.144531 263.839844 462.546875 264.105469 C 462.625 263.972656 462.734375 263.851562 462.777344 263.710938 C 462.828125 263.539062 462.820312 263.351562 462.835938 263.226562 C 463.128906 263.1875 463.402344 263.226562 463.570312 263.113281 C 464.03125 262.800781 464.460938 262.441406 464.867188 262.0625 C 464.996094 261.945312 465.09375 261.703125 465.074219 261.53125 C 465.015625 260.960938 465.238281 260.570312 465.679688 260.238281 C 465.777344 260.167969 465.757812 259.917969 465.746094 259.75 C 465.734375 259.546875 465.664062 259.347656 465.652344 259.144531 C 465.644531 259.027344 465.746094 258.8125 465.726562 258.804688 C 465.28125 258.613281 465.511719 258.222656 465.523438 257.964844 C 465.640625 255.101562 465.757812 252.242188 465.945312 249.386719 C 466.082031 247.292969 466.3125 245.203125 466.519531 243.113281 C 466.625 242.066406 466.722656 241.015625 466.914062 239.984375 C 467.101562 238.976562 466.792969 237.949219 467.257812 236.9375 C 467.554688 236.296875 467.480469 235.492188 467.597656 234.761719 C 468.199219 231.023438 468.746094 227.277344 469.433594 223.554688 C 469.914062 220.96875 470.589844 218.421875 471.171875 215.855469 C 471.203125 215.714844 471.207031 215.523438 471.132812 215.410156 C 470.765625 214.84375 470.773438 214.808594 471.390625 214.628906 C 471.550781 214.035156 471.710938 213.46875 471.851562 212.898438 C 472.113281 211.824219 472.371094 210.742188 472.609375 209.660156 C 472.648438 209.476562 472.5 209.242188 472.554688 209.070312 C 472.761719 208.4375 473.050781 207.828125 473.230469 207.1875 C 473.304688 206.925781 473.179688 206.609375 473.144531 206.347656 C 473.304688 206.148438 473.574219 205.945312 473.648438 205.691406 C 473.910156 204.769531 474.078125 203.824219 474.328125 202.902344 C 474.855469 200.925781 475.421875 198.960938 475.960938 196.988281 C 476.199219 196.105469 476.390625 195.210938 476.625 194.328125 C 476.804688 193.652344 476.6875 193.1875 475.890625 193.199219 C 475.851562 192.980469 475.824219 192.8125 475.789062 192.597656 C 475.628906 192.671875 475.519531 192.722656 475.449219 192.757812 C 475.273438 192.550781 475.105469 192.355469 474.828125 192.03125 C 475.402344 192.121094 475.851562 192.191406 476.15625 192.242188 C 476.269531 192.03125 476.347656 191.882812 476.429688 191.730469 C 476.429688 191.730469 476.429688 191.726562 476.429688 191.726562 Z M 437.28125 257.605469 C 437.042969 257.28125 436.839844 257.046875 436.691406 256.785156 C 436.628906 256.671875 436.648438 256.484375 436.691406 256.351562 C 436.707031 256.289062 436.894531 256.21875 436.960938 256.246094 C 437.082031 256.296875 437.253906 256.414062 437.265625 256.515625 C 437.304688 256.859375 437.28125 257.207031 437.28125 257.605469 Z M 436.078125 252.609375 C 436.222656 252.410156 436.339844 252.25 436.355469 252.226562 C 436.699219 252.472656 436.898438 252.617188 437.101562 252.761719 C 437.152344 252.71875 437.203125 252.675781 437.253906 252.628906 C 437.269531 252.863281 437.285156 253.09375 437.300781 253.371094 C 436.875 253.105469 436.5 252.871094 436.078125 252.609375 Z M 437.964844 257.933594 C 437.800781 257.828125 437.742188 257.558594 437.632812 257.363281 C 437.792969 257.28125 437.957031 257.199219 438.058594 257.144531 C 438.328125 257.46875 438.539062 257.726562 438.890625 258.152344 C 438.472656 258.0625 438.175781 258.0625 437.964844 257.933594 Z M 438.726562 248.640625 C 438.71875 248.53125 438.699219 248.277344 438.683594 248.023438 C 438.683594 248.023438 438.679688 248.023438 438.679688 248.023438 C 438.675781 248.03125 438.667969 248.039062 438.660156 248.046875 C 438.660156 248.035156 438.660156 248.027344 438.660156 248.015625 C 438.527344 247.964844 438.363281 247.941406 438.296875 247.847656 C 438.089844 247.546875 437.929688 247.214844 437.738281 246.875 C 437.953125 246.875 438.222656 246.875 438.539062 246.875 C 438.578125 247.261719 438.617188 247.636719 438.660156 248.015625 C 438.664062 248.019531 438.671875 248.019531 438.679688 248.023438 C 438.90625 247.746094 439.132812 247.46875 439.40625 247.140625 C 439.507812 247.152344 439.742188 247.183594 440.128906 247.230469 C 440.109375 247.195312 440.105469 247.179688 440.132812 247.230469 C 440.132812 247.230469 440.128906 247.230469 440.128906 247.230469 C 440.140625 247.253906 440.15625 247.28125 440.175781 247.3125 C 440.234375 247.402344 440.3125 247.480469 440.34375 247.515625 C 439.796875 247.894531 439.253906 248.273438 438.726562 248.640625 Z M 439.457031 244.941406 C 439.507812 244.972656 439.558594 245.003906 439.609375 245.035156 C 439.480469 245.207031 439.300781 245.363281 439.242188 245.554688 C 439.164062 245.8125 439.179688 246.097656 439.152344 246.371094 C 438.816406 245.496094 438.859375 245.363281 439.457031 244.941406 Z M 439.96875 256.65625 C 440.246094 256.867188 440.496094 257.0625 440.742188 257.25 C 440.53125 257.683594 440.207031 258.0625 439.785156 257.738281 C 439.40625 257.445312 439.589844 256.984375 439.96875 256.65625 Z M 441.058594 259.5 C 440.875 259.328125 440.695312 259.167969 440.519531 259.007812 C 440.523438 259.011719 440.53125 259.019531 440.535156 259.027344 C 440.53125 259.027344 440.523438 259.03125 440.519531 259.03125 C 440.539062 259.203125 440.570312 259.371094 440.558594 259.539062 C 440.546875 259.695312 440.484375 259.851562 440.441406 260.007812 C 440.328125 259.96875 440.132812 259.949219 440.113281 259.886719 C 440.066406 259.695312 440.023438 259.457031 440.09375 259.289062 C 440.148438 259.164062 440.367188 259.113281 440.519531 259.03125 C 440.519531 259.023438 440.519531 259.011719 440.515625 259.003906 C 440.519531 259.003906 440.519531 259.003906 440.519531 259.007812 C 440.394531 258.84375 440.265625 258.683594 440.140625 258.523438 C 440.152344 258.46875 440.167969 258.414062 440.179688 258.359375 C 440.386719 258.425781 440.652344 258.433594 440.785156 258.570312 C 441.011719 258.804688 441.460938 259.027344 441.058594 259.5 Z M 442.039062 244.777344 C 441.699219 244.683594 441.316406 244.578125 440.867188 244.453125 C 440.835938 244.234375 440.796875 243.957031 440.75 243.617188 C 440.589844 243.75 440.472656 243.847656 440.246094 244.03125 C 440.082031 243.550781 439.941406 243.15625 439.792969 242.742188 C 439.59375 242.804688 439.316406 242.894531 438.910156 243.023438 C 439.34375 242.085938 439.796875 241.9375 440.5625 242.300781 C 440.6875 242.363281 440.941406 242.394531 440.992188 242.324219 C 441.320312 241.90625 441.777344 242.054688 441.980469 242.28125 C 442.238281 242.566406 442.394531 243.039062 442.390625 243.429688 C 442.390625 243.878906 442.167969 244.324219 442.039062 244.777344 Z M 443.496094 259.078125 C 442.898438 258.847656 443.121094 258.429688 443.160156 257.960938 C 443.566406 258.3125 443.898438 258.605469 444.25 258.914062 C 444.089844 259.300781 443.835938 259.210938 443.496094 259.078125 Z M 450.292969 211.695312 C 450.539062 211.5 450.71875 211.316406 450.9375 211.191406 C 451.167969 211.0625 451.433594 210.988281 451.683594 210.890625 C 451.757812 211.183594 451.832031 211.472656 451.90625 211.761719 C 451.847656 211.78125 451.789062 211.800781 451.730469 211.820312 C 451.632812 211.703125 451.53125 211.589844 451.425781 211.464844 C 451.214844 211.707031 451.039062 211.914062 450.804688 212.183594 C 450.640625 212.023438 450.492188 211.886719 450.292969 211.695312 Z M 452.046875 218.015625 C 451.816406 218.273438 451.613281 218.507812 451.308594 218.851562 C 451.21875 218.542969 451.171875 218.382812 451.113281 218.179688 C 450.984375 218.234375 450.859375 218.289062 450.726562 218.34375 C 450.6875 217.777344 450.796875 217.75 452.046875 218.015625 Z M 450.808594 220.570312 C 450.75 220.535156 450.691406 220.5 450.632812 220.464844 C 450.703125 220.101562 450.777344 219.734375 450.851562 219.371094 C 450.914062 219.398438 450.976562 219.425781 451.039062 219.453125 C 451.34375 219.574219 451.652344 219.699219 452.195312 219.921875 C 451.628906 220.1875 451.21875 220.378906 450.808594 220.570312 Z M 454.753906 215.699219 C 454.382812 215.535156 454.054688 215.390625 453.59375 215.183594 C 454.804688 214.871094 454.851562 214.890625 454.753906 215.699219 Z M 454.378906 211.503906 C 454.085938 211.507812 453.792969 211.550781 453.5 211.578125 C 453.5 211.585938 453.5 211.59375 453.5 211.597656 C 453.496094 211.597656 453.488281 211.59375 453.480469 211.589844 C 453.480469 211.871094 453.480469 212.15625 453.480469 212.433594 C 453.078125 212.527344 452.707031 212.613281 452.21875 212.722656 C 452.289062 212.21875 452.359375 211.695312 452.441406 211.121094 C 452.902344 211.332031 453.195312 211.460938 453.480469 211.589844 C 453.480469 211.589844 453.480469 211.585938 453.480469 211.582031 C 453.488281 211.582031 453.492188 211.582031 453.5 211.578125 C 453.5 211.148438 453.5 210.71875 453.5 210.25 C 453.773438 210.140625 454.050781 210.027344 454.535156 209.832031 C 454.40625 210.28125 454.332031 210.558594 454.234375 210.910156 C 454.503906 210.804688 454.75 210.707031 454.992188 210.609375 C 455.117188 211.152344 454.863281 211.5 454.378906 211.503906 Z M 456.878906 224.621094 C 456.640625 224.503906 456.386719 224.378906 456.132812 224.253906 C 456.363281 223.828125 456.363281 223.828125 457.257812 224.179688 C 457.097656 224.363281 456.976562 224.507812 456.878906 224.621094 Z M 463.292969 210.558594 C 463.214844 210.445312 463.136719 210.335938 463.089844 210.273438 C 462.832031 210.371094 462.582031 210.46875 462.335938 210.5625 C 462.316406 210.519531 462.296875 210.476562 462.277344 210.433594 C 462.539062 210.082031 462.800781 209.726562 463.070312 209.359375 C 463.179688 209.699219 463.304688 210.097656 463.433594 210.5 C 463.386719 210.519531 463.339844 210.539062 463.292969 210.558594 Z M 468.042969 220.925781 C 467.957031 221.027344 467.910156 221.164062 467.820312 221.257812 C 467.796875 221.277344 467.605469 221.199219 467.609375 221.171875 C 467.617188 221.003906 467.632812 220.824219 467.699219 220.675781 C 467.730469 220.597656 467.878906 220.574219 468.050781 220.488281 C 467.839844 220.363281 467.722656 220.292969 467.601562 220.222656 C 467.648438 220.144531 467.679688 220.082031 467.691406 220.085938 C 467.972656 220.148438 468.25 220.222656 468.605469 220.316406 C 468.339844 220.601562 468.183594 220.757812 468.042969 220.925781 Z M 472.339844 205.1875 C 472.320312 205.296875 472.335938 205.476562 472.285156 205.496094 C 472.136719 205.5625 471.960938 205.5625 471.757812 205.753906 C 471.988281 205.847656 472.21875 205.9375 472.453125 206.03125 C 472.449219 206.0625 472.445312 206.09375 472.441406 206.125 C 472.175781 206.125 471.914062 206.125 471.652344 206.125 C 471.222656 205.449219 471.585938 205.027344 472.082031 204.640625 C 472.058594 204.152344 472.429688 204.351562 472.640625 204.351562 C 472.746094 204.351562 472.847656 204.535156 472.953125 204.636719 C 472.746094 204.820312 472.542969 205.003906 472.339844 205.1875 Z M 476.429688 191.726562 C 476.617188 191.550781 476.804688 191.375 477.140625 191.058594 C 477.109375 191.554688 477.089844 191.914062 477.058594 192.4375 C 476.761719 192.101562 476.597656 191.914062 476.429688 191.726562 Z M 380.039062 254.550781 C 379.761719 254.632812 379.480469 254.710938 379.09375 254.824219 C 379.160156 254.5 379.199219 254.320312 379.214844 254.238281 C 379.492188 254.3125 379.730469 254.371094 379.964844 254.429688 C 379.988281 254.472656 380.015625 254.511719 380.039062 254.550781 Z M 380.039062 254.550781 " fill-opacity="1" fill-rule="evenodd"/></g></svg>